<svg xmlns="http://www.w3.org/2000/svg" xmlns:xlink="http://www.w3.org/1999/xlink" contentStyleType="text/css" height="924px" preserveAspectRatio="none" style="width:1138px;height:924px;background:#FFFFFF;" version="1.1" viewBox="0 0 1138 924" width="1138px" zoomAndPan="magnify"><defs/><g><!--cluster aplicacion--><g id="cluster_aplicacion"><path d="M767.5,154.3 L847.9951,154.3 A3.75,3.75 0 0 1 850.4951,156.8 L857.4951,176.5969 L954.5,176.5969 A2.5,2.5 0 0 1 957,179.0969 L957,267.1 A2.5,2.5 0 0 1 954.5,269.6 L767.5,269.6 A2.5,2.5 0 0 1 765,267.1 L765,156.8 A2.5,2.5 0 0 1 767.5,154.3 " fill="none" style="stroke:#000000;stroke-width:1.5;"/><line style="stroke:#000000;stroke-width:1.5;" x1="765" x2="857.4951" y1="176.5969" y2="176.5969"/><text fill="#000000" font-family="sans-serif" font-size="14" font-weight="bold" lengthAdjust="spacing" textLength="79.4951" x="769" y="169.2951">aplicacion</text></g><!--cluster dominio--><g id="cluster_dominio"><path d="M8.5,318.6 L72.9102,318.6 A3.75,3.75 0 0 1 75.4102,321.1 L82.4102,340.8969 L870.5,340.8969 A2.5,2.5 0 0 1 873,343.3969 L873,915.22 A2.5,2.5 0 0 1 870.5,917.72 L8.5,917.72 A2.5,2.5 0 0 1 6,915.22 L6,321.1 A2.5,2.5 0 0 1 8.5,318.6 " fill="none" style="stroke:#000000;stroke-width:1.5;"/><line style="stroke:#000000;stroke-width:1.5;" x1="6" x2="82.4102" y1="340.8969" y2="340.8969"/><text fill="#000000" font-family="sans-serif" font-size="14" font-weight="bold" lengthAdjust="spacing" textLength="63.4102" x="10" y="333.5951">dominio</text></g><!--cluster excepciones--><g id="cluster_excepciones"><path d="M708.5,6 L806.3516,6 A3.75,3.75 0 0 1 808.8516,8.5 L815.8516,28.2969 L1013.5,28.2969 A2.5,2.5 0 0 1 1016,30.7969 L1016,118.8 A2.5,2.5 0 0 1 1013.5,121.3 L708.5,121.3 A2.5,2.5 0 0 1 706,118.8 L706,8.5 A2.5,2.5 0 0 1 708.5,6 " fill="none" style="stroke:#000000;stroke-width:1.5;"/><line style="stroke:#000000;stroke-width:1.5;" x1="706" x2="815.8516" y1="28.2969" y2="28.2969"/><text fill="#000000" font-family="sans-serif" font-size="14" font-weight="bold" lengthAdjust="spacing" textLength="96.8516" x="710" y="20.9951">excepciones</text></g><!--cluster interfaz--><g id="cluster_interfaz"><path d="M899.5,408.23 L962.0439,408.23 A3.75,3.75 0 0 1 964.5439,410.73 L971.5439,430.5269 L1128.5,430.5269 A2.5,2.5 0 0 1 1131,433.0269 L1131,537.32 A2.5,2.5 0 0 1 1128.5,539.82 L899.5,539.82 A2.5,2.5 0 0 1 897,537.32 L897,410.73 A2.5,2.5 0 0 1 899.5,408.23 " fill="none" style="stroke:#000000;stroke-width:1.5;"/><line style="stroke:#000000;stroke-width:1.5;" x1="897" x2="971.5439" y1="430.5269" y2="430.5269"/><text fill="#000000" font-family="sans-serif" font-size="14" font-weight="bold" lengthAdjust="spacing" textLength="61.5439" x="901" y="423.2251">interfaz</text></g><!--class Principal--><g id="elem_Principal"><rect codeLine="2" fill="#F1F1F1" height="64.2969" id="Principal" rx="2.5" ry="2.5" style="stroke:#181818;stroke-width:0.5;" width="159.5742" x="781.21" y="189.3"/><ellipse cx="826.7954" cy="205.3" fill="#ADD1B2" rx="11" ry="11" style="stroke:#181818;stroke-width:1;"/><path d="M829.7642,210.9406 Q829.1861,211.2375 828.5454,211.3781 Q827.9048,211.5344 827.2017,211.5344 Q824.7017,211.5344 823.3736,209.8938 Q822.0611,208.2375 822.0611,205.1125 Q822.0611,201.9875 823.3736,200.3313 Q824.7017,198.675 827.2017,198.675 Q827.9048,198.675 828.5454,198.8313 Q829.2017,198.9875 829.7642,199.2844 L829.7642,202.0031 Q829.1392,201.425 828.5454,201.1594 Q827.9517,200.8781 827.3267,200.8781 Q825.9829,200.8781 825.2954,201.9563 Q824.6079,203.0188 824.6079,205.1125 Q824.6079,207.2063 825.2954,208.2844 Q825.9829,209.3469 827.3267,209.3469 Q827.9517,209.3469 828.5454,209.0813 Q829.1392,208.8 829.7642,208.2219 L829.7642,210.9406 Z " fill="#000000"/><text fill="#000000" font-family="sans-serif" font-size="14" lengthAdjust="spacing" textLength="59.9033" x="847.2954" y="210.1467">Principal</text><line style="stroke:#181818;stroke-width:0.5;" x1="782.21" x2="939.7842" y1="221.3" y2="221.3"/><line style="stroke:#181818;stroke-width:0.5;" x1="782.21" x2="939.7842" y1="229.3" y2="229.3"/><ellipse cx="792.21" cy="242.9484" fill="#84BE84" rx="3" ry="3" style="stroke:#038048;stroke-width:1;"/><text fill="#000000" font-family="sans-serif" font-size="14" lengthAdjust="spacing" textLength="133.5742" x="801.21" y="246.2951">main(String[] args)</text></g><!--class Producto--><g id="elem_Producto"><rect codeLine="8" fill="#F1F1F1" height="210.9688" id="Producto" rx="2.5" ry="2.5" style="stroke:#181818;stroke-width:0.5;" width="348.6152" x="21.69" y="378.04"/><ellipse cx="160.6099" cy="394.04" fill="#ADD1B2" rx="11" ry="11" style="stroke:#181818;stroke-width:1;"/><path d="M163.5787,399.6806 Q163.0005,399.9775 162.3599,400.1181 Q161.7193,400.2744 161.0162,400.2744 Q158.5162,400.2744 157.188,398.6338 Q155.8755,396.9775 155.8755,393.8525 Q155.8755,390.7275 157.188,389.0713 Q158.5162,387.415 161.0162,387.415 Q161.7193,387.415 162.3599,387.5713 Q163.0162,387.7275 163.5787,388.0244 L163.5787,390.7431 Q162.9537,390.165 162.3599,389.8994 Q161.7662,389.6181 161.1412,389.6181 Q159.7974,389.6181 159.1099,390.6963 Q158.4224,391.7588 158.4224,393.8525 Q158.4224,395.9463 159.1099,397.0244 Q159.7974,398.0869 161.1412,398.0869 Q161.7662,398.0869 162.3599,397.8213 Q162.9537,397.54 163.5787,396.9619 L163.5787,399.6806 Z " fill="#000000"/><text fill="#000000" font-family="sans-serif" font-size="14" lengthAdjust="spacing" textLength="62.2754" x="181.1099" y="398.8867">Producto</text><line style="stroke:#181818;stroke-width:0.5;" x1="22.69" x2="369.3052" y1="410.04" y2="410.04"/><rect fill="none" height="6" style="stroke:#C82930;stroke-width:1;" width="6" x="29.69" y="420.6884"/><text fill="#000000" font-family="sans-serif" font-size="14" lengthAdjust="spacing" textLength="35.4785" x="41.69" y="427.0351">int id</text><rect fill="none" height="6" style="stroke:#C82930;stroke-width:1;" width="6" x="29.69" y="436.9853"/><text fill="#000000" font-family="sans-serif" font-size="14" lengthAdjust="spacing" textLength="100.5635" x="41.69" y="443.332">String nombre</text><rect fill="none" height="6" style="stroke:#C82930;stroke-width:1;" width="6" x="29.69" y="453.2822"/><text fill="#000000" font-family="sans-serif" font-size="14" lengthAdjust="spacing" textLength="95.5732" x="41.69" y="459.6289">double precio</text><line style="stroke:#181818;stroke-width:0.5;" x1="22.69" x2="369.3052" y1="466.9306" y2="466.9306"/><ellipse cx="32.69" cy="480.5791" fill="#84BE84" rx="3" ry="3" style="stroke:#038048;stroke-width:1;"/><text fill="#000000" font-family="sans-serif" font-size="14" lengthAdjust="spacing" textLength="322.6152" x="41.69" y="483.9257">Producto(int id, String nombre, double precio)</text><ellipse cx="32.69" cy="496.8759" fill="#84BE84" rx="3" ry="3" style="stroke:#038048;stroke-width:1;"/><text fill="#000000" font-family="sans-serif" font-size="14" lengthAdjust="spacing" textLength="78.7979" x="41.69" y="500.2226">getId() : int</text><ellipse cx="32.69" cy="513.1728" fill="#84BE84" rx="3" ry="3" style="stroke:#038048;stroke-width:1;"/><text fill="#000000" font-family="sans-serif" font-size="14" lengthAdjust="spacing" textLength="145.2432" x="41.69" y="516.5195">getNombre() : String</text><ellipse cx="32.69" cy="529.4697" fill="#84BE84" rx="3" ry="3" style="stroke:#038048;stroke-width:1;"/><text fill="#000000" font-family="sans-serif" font-size="14" lengthAdjust="spacing" textLength="232.0596" x="41.69" y="532.8164">setNombre(String nombre) : void</text><ellipse cx="32.69" cy="545.7666" fill="#84BE84" rx="3" ry="3" style="stroke:#038048;stroke-width:1;"/><text fill="#000000" font-family="sans-serif" font-size="14" lengthAdjust="spacing" textLength="138.209" x="41.69" y="549.1132">getPrecio() : double</text><ellipse cx="32.69" cy="562.0634" fill="#84BE84" rx="3" ry="3" style="stroke:#038048;stroke-width:1;"/><text fill="#000000" font-family="sans-serif" font-size="14" lengthAdjust="spacing" textLength="214.1016" x="41.69" y="565.4101">setPrecio(double precio) : void</text><ellipse cx="32.69" cy="578.3603" fill="#84BE84" rx="3" ry="3" style="stroke:#038048;stroke-width:1;"/><text fill="#000000" font-family="sans-serif" font-size="14" lengthAdjust="spacing" textLength="122.1582" x="41.69" y="581.707">toString() : String</text></g><!--class Catalogo--><g id="elem_Catalogo"><rect codeLine="21" fill="#F1F1F1" height="259.8594" id="Catalogo" rx="2.5" ry="2.5" style="stroke:#181818;stroke-width:0.5;" width="451.1885" x="405.41" y="353.6"/><ellipse cx="595.5892" cy="369.6" fill="#ADD1B2" rx="11" ry="11" style="stroke:#181818;stroke-width:1;"/><path d="M598.5579,375.2406 Q597.9798,375.5375 597.3392,375.6781 Q596.6986,375.8344 595.9954,375.8344 Q593.4954,375.8344 592.1673,374.1938 Q590.8548,372.5375 590.8548,369.4125 Q590.8548,366.2875 592.1673,364.6313 Q593.4954,362.975 595.9954,362.975 Q596.6986,362.975 597.3392,363.1313 Q597.9954,363.2875 598.5579,363.5844 L598.5579,366.3031 Q597.9329,365.725 597.3392,365.4594 Q596.7454,365.1781 596.1204,365.1781 Q594.7767,365.1781 594.0892,366.2563 Q593.4017,367.3188 593.4017,369.4125 Q593.4017,371.5063 594.0892,372.5844 Q594.7767,373.6469 596.1204,373.6469 Q596.7454,373.6469 597.3392,373.3813 Q597.9329,373.1 598.5579,372.5219 L598.5579,375.2406 Z " fill="#000000"/><text fill="#000000" font-family="sans-serif" font-size="14" lengthAdjust="spacing" textLength="62.3301" x="616.0892" y="374.4467">Catalogo</text><line style="stroke:#181818;stroke-width:0.5;" x1="406.41" x2="855.5985" y1="385.6" y2="385.6"/><rect fill="none" height="6" style="stroke:#C82930;stroke-width:1;" width="6" x="413.41" y="396.2484"/><text fill="#000000" font-family="sans-serif" font-size="14" lengthAdjust="spacing" textLength="206.0625" x="425.41" y="402.5951">List&lt;Software&gt; listaSoftware</text><rect fill="none" height="6" style="stroke:#C82930;stroke-width:1;" width="6" x="413.41" y="412.5453"/><text fill="#000000" font-family="sans-serif" font-size="14" lengthAdjust="spacing" textLength="200.5322" x="425.41" y="418.892">static final String FILE_NAME</text><line style="stroke:#181818;stroke-width:0.5;" x1="406.41" x2="855.5985" y1="426.1938" y2="426.1938"/><ellipse cx="416.41" cy="439.8422" fill="#84BE84" rx="3" ry="3" style="stroke:#038048;stroke-width:1;"/><text fill="#000000" font-family="sans-serif" font-size="14" lengthAdjust="spacing" textLength="261.0576" x="425.41" y="443.1889">Catalogo() throws CatalogoException</text><ellipse cx="416.41" cy="456.1391" fill="#84BE84" rx="3" ry="3" style="stroke:#038048;stroke-width:1;"/><text fill="#000000" font-family="sans-serif" font-size="14" lengthAdjust="spacing" textLength="288.3945" x="425.41" y="459.4857">anadirSoftware(Software software) : void</text><ellipse cx="416.41" cy="472.4359" fill="#84BE84" rx="3" ry="3" style="stroke:#038048;stroke-width:1;"/><text fill="#000000" font-family="sans-serif" font-size="14" lengthAdjust="spacing" textLength="235.3887" x="425.41" y="475.7826">eliminarSoftware(int id) : boolean</text><ellipse cx="416.41" cy="488.7328" fill="#84BE84" rx="3" ry="3" style="stroke:#038048;stroke-width:1;"/><text fill="#000000" font-family="sans-serif" font-size="14" lengthAdjust="spacing" textLength="425.1885" x="425.41" y="492.0795">modificarSoftware(int id, Software nuevoSoftware) : boolean</text><ellipse cx="416.41" cy="505.0297" fill="#84BE84" rx="3" ry="3" style="stroke:#038048;stroke-width:1;"/><text fill="#000000" font-family="sans-serif" font-size="14" lengthAdjust="spacing" textLength="267.4219" x="425.41" y="508.3764">buscarSoftwarePorId(int id) : Software</text><ellipse cx="416.41" cy="521.3266" fill="#84BE84" rx="3" ry="3" style="stroke:#038048;stroke-width:1;"/><text fill="#000000" font-family="sans-serif" font-size="14" lengthAdjust="spacing" textLength="151.334" x="425.41" y="524.6732">listarSoftware() : void</text><ellipse cx="416.41" cy="537.6234" fill="#84BE84" rx="3" ry="3" style="stroke:#038048;stroke-width:1;"/><text fill="#000000" font-family="sans-serif" font-size="14" lengthAdjust="spacing" textLength="81.04" x="425.41" y="540.9701">leer() : void</text><ellipse cx="416.41" cy="553.9203" fill="#84BE84" rx="3" ry="3" style="stroke:#038048;stroke-width:1;"/><text fill="#000000" font-family="sans-serif" font-size="14" lengthAdjust="spacing" textLength="105.9502" x="425.41" y="557.267">escribir() : void</text><ellipse cx="416.41" cy="570.2172" fill="#84BE84" rx="3" ry="3" style="stroke:#038048;stroke-width:1;"/><text fill="#000000" font-family="sans-serif" font-size="14" lengthAdjust="spacing" textLength="184.1875" x="425.41" y="573.5639">esIdUnico(int id) : boolean</text><ellipse cx="416.41" cy="586.5141" fill="#84BE84" rx="3" ry="3" style="stroke:#038048;stroke-width:1;"/><text fill="#000000" font-family="sans-serif" font-size="14" lengthAdjust="spacing" textLength="253.0527" x="425.41" y="589.8607">getListaSoftware() : List&lt;Software&gt;</text><ellipse cx="416.41" cy="602.8109" fill="#84BE84" rx="3" ry="3" style="stroke:#038048;stroke-width:1;"/><text fill="#000000" font-family="sans-serif" font-size="14" lengthAdjust="spacing" textLength="220.4453" x="425.41" y="606.1576">existeSoftware(int id) : boolean</text></g><!--class Software--><g id="elem_Software"><rect codeLine="37" fill="#F1F1F1" height="227.2656" id="Software" rx="2.5" ry="2.5" style="stroke:#181818;stroke-width:0.5;" width="699.3945" x="22.3" y="674.45"/><ellipse cx="336.613" cy="690.45" fill="#ADD1B2" rx="11" ry="11" style="stroke:#181818;stroke-width:1;"/><path d="M339.5817,696.0906 Q339.0036,696.3875 338.363,696.5281 Q337.7224,696.6844 337.0192,696.6844 Q334.5192,696.6844 333.1911,695.0438 Q331.8786,693.3875 331.8786,690.2625 Q331.8786,687.1375 333.1911,685.4813 Q334.5192,683.825 337.0192,683.825 Q337.7224,683.825 338.363,683.9813 Q339.0192,684.1375 339.5817,684.4344 L339.5817,687.1531 Q338.9567,686.575 338.363,686.3094 Q337.7692,686.0281 337.1442,686.0281 Q335.8005,686.0281 335.113,687.1063 Q334.4255,688.1688 334.4255,690.2625 Q334.4255,692.3563 335.113,693.4344 Q335.8005,694.4969 337.1442,694.4969 Q337.7692,694.4969 338.363,694.2313 Q338.9567,693.95 339.5817,693.3719 L339.5817,696.0906 Z " fill="#000000"/><text fill="#000000" font-family="sans-serif" font-size="14" lengthAdjust="spacing" textLength="62.2686" x="357.113" y="695.2967">Software</text><line style="stroke:#181818;stroke-width:0.5;" x1="23.3" x2="720.6945" y1="706.45" y2="706.45"/><rect fill="none" height="6" style="stroke:#C82930;stroke-width:1;" width="6" x="30.3" y="717.0984"/><text fill="#000000" font-family="sans-serif" font-size="14" lengthAdjust="spacing" textLength="86.7686" x="42.3" y="723.4451">String tipoIA</text><rect fill="none" height="6" style="stroke:#C82930;stroke-width:1;" width="6" x="30.3" y="733.3953"/><text fill="#000000" font-family="sans-serif" font-size="14" lengthAdjust="spacing" textLength="106.4492" x="42.3" y="739.742">String lenguaje</text><rect fill="none" height="6" style="stroke:#C82930;stroke-width:1;" width="6" x="30.3" y="749.6922"/><text fill="#000000" font-family="sans-serif" font-size="14" lengthAdjust="spacing" textLength="130.8672" x="42.3" y="756.0389">String usoPrincipal</text><line style="stroke:#181818;stroke-width:0.5;" x1="23.3" x2="720.6945" y1="763.3406" y2="763.3406"/><ellipse cx="33.3" cy="776.9891" fill="#84BE84" rx="3" ry="3" style="stroke:#038048;stroke-width:1;"/><text fill="#000000" font-family="sans-serif" font-size="14" lengthAdjust="spacing" textLength="673.3945" x="42.3" y="780.3357">Software(int id, String nombre, String tipoIA, String lenguaje, String usoPrincipal, double precio)</text><ellipse cx="33.3" cy="793.2859" fill="#84BE84" rx="3" ry="3" style="stroke:#038048;stroke-width:1;"/><text fill="#000000" font-family="sans-serif" font-size="14" lengthAdjust="spacing" textLength="132.9111" x="42.3" y="796.6326">getTipoIA() : String</text><ellipse cx="33.3" cy="809.5828" fill="#84BE84" rx="3" ry="3" style="stroke:#038048;stroke-width:1;"/><text fill="#000000" font-family="sans-serif" font-size="14" lengthAdjust="spacing" textLength="205.9326" x="42.3" y="812.9295">setTipoIA(String tipoIA) : void</text><ellipse cx="33.3" cy="825.8797" fill="#84BE84" rx="3" ry="3" style="stroke:#038048;stroke-width:1;"/><text fill="#000000" font-family="sans-serif" font-size="14" lengthAdjust="spacing" textLength="153.4395" x="42.3" y="829.2264">getLenguaje() : String</text><ellipse cx="33.3" cy="842.1766" fill="#84BE84" rx="3" ry="3" style="stroke:#038048;stroke-width:1;"/><text fill="#000000" font-family="sans-serif" font-size="14" lengthAdjust="spacing" textLength="246.1416" x="42.3" y="845.5232">setLenguaje(String lenguaje) : void</text><ellipse cx="33.3" cy="858.4734" fill="#84BE84" rx="3" ry="3" style="stroke:#038048;stroke-width:1;"/><text fill="#000000" font-family="sans-serif" font-size="14" lengthAdjust="spacing" textLength="175.3213" x="42.3" y="861.8201">getUsoPrincipal() : String</text><ellipse cx="33.3" cy="874.7703" fill="#84BE84" rx="3" ry="3" style="stroke:#038048;stroke-width:1;"/><text fill="#000000" font-family="sans-serif" font-size="14" lengthAdjust="spacing" textLength="292.4414" x="42.3" y="878.117">setUsoPrincipal(String usoPrincipal) : void</text><ellipse cx="33.3" cy="891.0672" fill="#84BE84" rx="3" ry="3" style="stroke:#038048;stroke-width:1;"/><text fill="#000000" font-family="sans-serif" font-size="14" lengthAdjust="spacing" textLength="122.1582" x="42.3" y="894.4139">toString() : String</text></g><!--class CatalogoException--><g id="elem_CatalogoException"><rect codeLine="53" fill="#F1F1F1" height="64.2969" id="CatalogoException" rx="2.5" ry="2.5" style="stroke:#181818;stroke-width:0.5;" width="277.5488" x="722.23" y="41"/><ellipse cx="791.0166" cy="57" fill="#ADD1B2" rx="11" ry="11" style="stroke:#181818;stroke-width:1;"/><path d="M793.9854,62.6406 Q793.4072,62.9375 792.7666,63.0781 Q792.126,63.2344 791.4229,63.2344 Q788.9229,63.2344 787.5947,61.5938 Q786.2822,59.9375 786.2822,56.8125 Q786.2822,53.6875 787.5947,52.0313 Q788.9229,50.375 791.4229,50.375 Q792.126,50.375 792.7666,50.5313 Q793.4229,50.6875 793.9854,50.9844 L793.9854,53.7031 Q793.3604,53.125 792.7666,52.8594 Q792.1729,52.5781 791.5479,52.5781 Q790.2041,52.5781 789.5166,53.6563 Q788.8291,54.7188 788.8291,56.8125 Q788.8291,58.9063 789.5166,59.9844 Q790.2041,61.0469 791.5479,61.0469 Q792.1729,61.0469 792.7666,60.7813 Q793.3604,60.5 793.9854,59.9219 L793.9854,62.6406 Z " fill="#000000"/><text fill="#000000" font-family="sans-serif" font-size="14" lengthAdjust="spacing" textLength="131.4756" x="811.5166" y="61.8467">CatalogoException</text><line style="stroke:#181818;stroke-width:0.5;" x1="723.23" x2="998.7788" y1="73" y2="73"/><line style="stroke:#181818;stroke-width:0.5;" x1="723.23" x2="998.7788" y1="81" y2="81"/><ellipse cx="733.23" cy="94.6484" fill="#84BE84" rx="3" ry="3" style="stroke:#038048;stroke-width:1;"/><text fill="#000000" font-family="sans-serif" font-size="14" lengthAdjust="spacing" textLength="251.5488" x="742.23" y="97.9951">CatalogoException(String message)</text></g><!--class Menu--><g id="elem_Menu"><rect codeLine="59" fill="#F1F1F1" height="80.5938" id="Menu" rx="2.5" ry="2.5" style="stroke:#181818;stroke-width:0.5;" width="202.3945" x="912.8" y="443.23"/><ellipse cx="990.528" cy="459.23" fill="#ADD1B2" rx="11" ry="11" style="stroke:#181818;stroke-width:1;"/><path d="M993.4968,464.8706 Q992.9187,465.1675 992.278,465.3081 Q991.6374,465.4644 990.9343,465.4644 Q988.4343,465.4644 987.1062,463.8238 Q985.7937,462.1675 985.7937,459.0425 Q985.7937,455.9175 987.1062,454.2613 Q988.4343,452.605 990.9343,452.605 Q991.6374,452.605 992.278,452.7613 Q992.9343,452.9175 993.4968,453.2144 L993.4968,455.9331 Q992.8718,455.355 992.278,455.0894 Q991.6843,454.8081 991.0593,454.8081 Q989.7155,454.8081 989.028,455.8863 Q988.3405,456.9488 988.3405,459.0425 Q988.3405,461.1363 989.028,462.2144 Q989.7155,463.2769 991.0593,463.2769 Q991.6843,463.2769 992.278,463.0113 Q992.8718,462.73 993.4968,462.1519 L993.4968,464.8706 Z " fill="#000000"/><text fill="#000000" font-family="sans-serif" font-size="14" lengthAdjust="spacing" textLength="38.4385" x="1011.028" y="464.0767">Menu</text><line style="stroke:#181818;stroke-width:0.5;" x1="913.8" x2="1114.1945" y1="475.23" y2="475.23"/><line style="stroke:#181818;stroke-width:0.5;" x1="913.8" x2="1114.1945" y1="483.23" y2="483.23"/><ellipse cx="923.8" cy="496.8784" fill="#84BE84" rx="3" ry="3" style="stroke:#038048;stroke-width:1;"/><text fill="#000000" font-family="sans-serif" font-size="14" lengthAdjust="spacing" textLength="176.3945" x="932.8" y="500.2251">Menu(Catalogo catalogo)</text><ellipse cx="923.8" cy="513.1753" fill="#84BE84" rx="3" ry="3" style="stroke:#038048;stroke-width:1;"/><text fill="#000000" font-family="sans-serif" font-size="14" lengthAdjust="spacing" textLength="147.6836" x="932.8" y="516.522">mostrarMenu() : void</text></g><!--reverse link Producto to Software--><g id="link_Producto_Software"><path d="M266.1123,605.0581 C282.0023,632.3681 290.13,646.34 306.25,674.05 " fill="none" id="Producto-backto-Software" style="stroke:#181818;stroke-width:1;"/><polygon fill="none" points="257.06,589.5,260.9263,608.0756,271.2984,602.0407,257.06,589.5" style="stroke:#181818;stroke-width:1;"/></g><!--link Principal to Catalogo--><g id="link_Principal_Catalogo"><path codeLine="65" d="M833.03,254.08 C810.76,279.26 781.985,311.7956 749.305,348.7456 " fill="none" id="Principal-to-Catalogo" style="stroke:#181818;stroke-width:1;"/><polygon fill="#181818" points="745.33,353.24,754.2887,349.1484,748.6425,349.4947,748.2962,343.8484,745.33,353.24" style="stroke:#181818;stroke-width:1;"/><text fill="#000000" font-family="sans-serif" font-size="13" lengthAdjust="spacing" textLength="29.7832" x="800" y="298.6669">uses</text></g><!--link Principal to Menu--><g id="link_Principal_Menu"><path codeLine="66" d="M879.61,254.08 C907.56,301.59 957.3083,386.1482 987.7383,437.8882 " fill="none" id="Principal-to-Menu" style="stroke:#181818;stroke-width:1;"/><polygon fill="#181818" points="990.78,443.06,989.6653,433.2744,988.2452,438.7501,982.7695,437.3301,990.78,443.06" style="stroke:#181818;stroke-width:1;"/><text fill="#000000" font-family="sans-serif" font-size="13" lengthAdjust="spacing" textLength="29.7832" x="907" y="298.6669">uses</text></g><!--reverse link CatalogoException to Principal--><g id="link_CatalogoException_Principal"><path codeLine="67" d="M861,123.53 C861,148.13 861,164.21 861,188.86 " fill="none" id="CatalogoException-backto-Principal" style="stroke:#181818;stroke-width:1;"/><polygon fill="none" points="861,105.53,855,123.53,867,123.53,861,105.53" style="stroke:#181818;stroke-width:1;"/></g><!--SRC=[bLNTQjim5BxFK-WoeVKBb58e8uD0MW9fhyeOidpYQfDrZ2ItOLlVVR8iMvBbTCnNqZb7ttV-tLBsazP0Q2iueuoZ9BzNn7vCKAt9GN79U4k5b_RVLKEvN1-DLTKltmXLjTuuvSVgOxLgFM253PSSPsXOTSnW15PmQGYlmdt09HARKa4GLzYL0aYhmFeON1aHrmFCDKcUNvFasIQygy7iglM6t13xC14_kfTEDM05hPwq2Kjl-ePH33tCmJ4wcC671CPhK-yo68C3pzmPc-MGqo_KK85rajCzr-RsY2VpJXNS4M6lTBm6Aoiqd94JbxQyFgAlk_ts- -FzmpPuCH9OByohmlT0kJqpQ8rjcM1C9Qsu6hdMuu5eVyY31C5jez3mPgXaRrWY2g0HUeCLFzasdHlRiez4ieCtF4Pi6KZPwGZXWCesGk3CqdJbiXSOymW4W5eGWsQAbtnPjQkU9MVuMR2sYVPnuHnEMja8yMmLy8yS9dqpPGpE1cIrF9o-AmnlSNUVYGN8kgC_85Dq6gV54NpCYvREQa8sNKUIIH23VphWJmxeqYHxRKAwECbxxy0be4a_StWHx3bo_X9WOhCGzFyiYcWXGp-j_O87dIpbR9hZLPyfHuSQqDgYBYn-MrrG9_eh8Na0sSMu_NqzhIxc3vjurBLHL3cx96375NvBHN4NLk2DpHFecTPHUqqUw-sVeWX_kRy0]--></g></svg>