<svg xmlns="http://www.w3.org/2000/svg" xmlns:xlink="http://www.w3.org/1999/xlink" contentStyleType="text/css" height="662px" preserveAspectRatio="none" style="width:833px;height:662px;background:#FFFFFF;" version="1.1" viewBox="0 0 833 662" width="833px" zoomAndPan="magnify"><defs/><g><!--cluster dominio--><g id="cluster_dominio"><path d="M8.5,170.3 L72.9102,170.3 A3.75,3.75 0 0 1 75.4102,172.8 L82.4102,192.5969 L479.5,192.5969 A2.5,2.5 0 0 1 482,195.0969 L482,652.55 A2.5,2.5 0 0 1 479.5,655.05 L8.5,655.05 A2.5,2.5 0 0 1 6,652.55 L6,172.8 A2.5,2.5 0 0 1 8.5,170.3 " fill="none" style="stroke:#000000;stroke-width:1.5;"/><line style="stroke:#000000;stroke-width:1.5;" x1="6" x2="82.4102" y1="192.5969" y2="192.5969"/><text fill="#000000" font-family="sans-serif" font-size="14" font-weight="bold" lengthAdjust="spacing" textLength="63.4102" x="10" y="185.2951">dominio</text></g><!--cluster presentacion--><g id="cluster_presentacion"><path d="M508.5,202.89 L612.5381,202.89 A3.75,3.75 0 0 1 615.0381,205.39 L622.0381,225.1869 L823.5,225.1869 A2.5,2.5 0 0 1 826,227.6869 L826,413.47 A2.5,2.5 0 0 1 823.5,415.97 L508.5,415.97 A2.5,2.5 0 0 1 506,413.47 L506,205.39 A2.5,2.5 0 0 1 508.5,202.89 " fill="none" style="stroke:#000000;stroke-width:1.5;"/><line style="stroke:#000000;stroke-width:1.5;" x1="506" x2="622.0381" y1="225.1869" y2="225.1869"/><text fill="#000000" font-family="sans-serif" font-size="14" font-weight="bold" lengthAdjust="spacing" textLength="103.0381" x="510" y="217.8851">presentacion</text></g><!--cluster aplicacion--><g id="cluster_aplicacion"><path d="M534.5,6 L614.9951,6 A3.75,3.75 0 0 1 617.4951,8.5 L624.4951,28.2969 L797.5,28.2969 A2.5,2.5 0 0 1 800,30.7969 L800,118.8 A2.5,2.5 0 0 1 797.5,121.3 L534.5,121.3 A2.5,2.5 0 0 1 532,118.8 L532,8.5 A2.5,2.5 0 0 1 534.5,6 " fill="none" style="stroke:#000000;stroke-width:1.5;"/><line style="stroke:#000000;stroke-width:1.5;" x1="532" x2="624.4951" y1="28.2969" y2="28.2969"/><text fill="#000000" font-family="sans-serif" font-size="14" font-weight="bold" lengthAdjust="spacing" textLength="79.4951" x="536" y="20.9951">aplicacion</text></g><!--class Habitante--><g id="elem_Habitante"><rect codeLine="2" fill="#F1F1F1" height="227.2656" id="Habitante" rx="2.5" ry="2.5" style="stroke:#181818;stroke-width:0.5;" width="444.8926" x="21.55" y="205.3"/><ellipse cx="205.2829" cy="221.3" fill="#ADD1B2" rx="11" ry="11" style="stroke:#181818;stroke-width:1.0;"/><path d="M208.2517,226.9406 Q207.6735,227.2375 207.0329,227.3781 Q206.3923,227.5344 205.6892,227.5344 Q203.1892,227.5344 201.861,225.8937 Q200.5485,224.2375 200.5485,221.1125 Q200.5485,217.9875 201.861,216.3312 Q203.1892,214.675 205.6892,214.675 Q206.3923,214.675 207.0329,214.8312 Q207.6892,214.9875 208.2517,215.2844 L208.2517,218.0031 Q207.6267,217.425 207.0329,217.1594 Q206.4392,216.8781 205.8142,216.8781 Q204.4704,216.8781 203.7829,217.9562 Q203.0954,219.0187 203.0954,221.1125 Q203.0954,223.2062 203.7829,224.2844 Q204.4704,225.3469 205.8142,225.3469 Q206.4392,225.3469 207.0329,225.0812 Q207.6267,224.8 208.2517,224.2219 L208.2517,226.9406 Z " fill="#000000"/><text fill="#000000" font-family="sans-serif" font-size="14" lengthAdjust="spacing" textLength="68.9268" x="225.7829" y="226.1467">Habitante</text><line style="stroke:#181818;stroke-width:0.5;" x1="22.55" x2="465.4426" y1="237.3" y2="237.3"/><rect fill="none" height="6" style="stroke:#C82930;stroke-width:1.0;" width="6" x="29.55" y="247.9484"/><text fill="#000000" font-family="sans-serif" font-size="14" lengthAdjust="spacing" textLength="100.5635" x="41.55" y="254.2951">String nombre</text><rect fill="none" height="6" style="stroke:#C82930;stroke-width:1.0;" width="6" x="29.55" y="264.2453"/><text fill="#000000" font-family="sans-serif" font-size="14" lengthAdjust="spacing" textLength="110.3389" x="41.55" y="270.592">String apellido1</text><rect fill="none" height="6" style="stroke:#C82930;stroke-width:1.0;" width="6" x="29.55" y="280.5422"/><text fill="#000000" font-family="sans-serif" font-size="14" lengthAdjust="spacing" textLength="110.3389" x="41.55" y="286.8889">String apellido2</text><line style="stroke:#181818;stroke-width:0.5;" x1="22.55" x2="465.4426" y1="294.1906" y2="294.1906"/><ellipse cx="32.55" cy="307.8391" fill="#84BE84" rx="3" ry="3" style="stroke:#038048;stroke-width:1.0;"/><text fill="#000000" font-family="sans-serif" font-size="14" lengthAdjust="spacing" textLength="418.8926" x="41.55" y="311.1857">Habitante(String nombre, String apellido1, String apellido2)</text><ellipse cx="32.55" cy="324.1359" fill="#84BE84" rx="3" ry="3" style="stroke:#038048;stroke-width:1.0;"/><text fill="#000000" font-family="sans-serif" font-size="14" lengthAdjust="spacing" textLength="222.8926" x="41.55" y="327.4826">void setNombre(String nombre)</text><ellipse cx="32.55" cy="340.4328" fill="#84BE84" rx="3" ry="3" style="stroke:#038048;stroke-width:1.0;"/><text fill="#000000" font-family="sans-serif" font-size="14" lengthAdjust="spacing" textLength="241.8418" x="41.55" y="343.7795">void setApellido1(String apellido1)</text><ellipse cx="32.55" cy="356.7297" fill="#84BE84" rx="3" ry="3" style="stroke:#038048;stroke-width:1.0;"/><text fill="#000000" font-family="sans-serif" font-size="14" lengthAdjust="spacing" textLength="241.8418" x="41.55" y="360.0764">void setApellido2(String apellido2)</text><ellipse cx="32.55" cy="373.0266" fill="#84BE84" rx="3" ry="3" style="stroke:#038048;stroke-width:1.0;"/><text fill="#000000" font-family="sans-serif" font-size="14" lengthAdjust="spacing" textLength="136.0762" x="41.55" y="376.3732">String getNombre()</text><ellipse cx="32.55" cy="389.3234" fill="#84BE84" rx="3" ry="3" style="stroke:#038048;stroke-width:1.0;"/><text fill="#000000" font-family="sans-serif" font-size="14" lengthAdjust="spacing" textLength="145.25" x="41.55" y="392.6701">String getApellido1()</text><ellipse cx="32.55" cy="405.6203" fill="#84BE84" rx="3" ry="3" style="stroke:#038048;stroke-width:1.0;"/><text fill="#000000" font-family="sans-serif" font-size="14" lengthAdjust="spacing" textLength="145.25" x="41.55" y="408.967">String getApellido2()</text><ellipse cx="32.55" cy="421.9172" fill="#84BE84" rx="3" ry="3" style="stroke:#038048;stroke-width:1.0;"/><text fill="#000000" font-family="sans-serif" font-size="14" lengthAdjust="spacing" textLength="112.9912" x="41.55" y="425.2639">String toString()</text></g><!--class OficinaPadron--><g id="elem_OficinaPadron"><rect codeLine="16" fill="#F1F1F1" height="129.4844" id="OficinaPadron" rx="2.5" ry="2.5" style="stroke:#181818;stroke-width:0.5;" width="306.5469" x="125.73" y="509.57"/><ellipse cx="225.7637" cy="525.57" fill="#ADD1B2" rx="11" ry="11" style="stroke:#181818;stroke-width:1.0;"/><path d="M228.7324,531.2106 Q228.1543,531.5075 227.5137,531.6481 Q226.8731,531.8044 226.1699,531.8044 Q223.6699,531.8044 222.3418,530.1637 Q221.0293,528.5075 221.0293,525.3825 Q221.0293,522.2575 222.3418,520.6012 Q223.6699,518.945 226.1699,518.945 Q226.8731,518.945 227.5137,519.1012 Q228.1699,519.2575 228.7324,519.5544 L228.7324,522.2731 Q228.1074,521.695 227.5137,521.4294 Q226.9199,521.1481 226.2949,521.1481 Q224.9512,521.1481 224.2637,522.2262 Q223.5762,523.2887 223.5762,525.3825 Q223.5762,527.4762 224.2637,528.5544 Q224.9512,529.6169 226.2949,529.6169 Q226.9199,529.6169 227.5137,529.3512 Q228.1074,529.07 228.7324,528.4919 L228.7324,531.2106 Z " fill="#000000"/><text fill="#000000" font-family="sans-serif" font-size="14" lengthAdjust="spacing" textLength="97.9795" x="246.2637" y="530.4167">OficinaPadron</text><line style="stroke:#181818;stroke-width:0.5;" x1="126.73" x2="431.2769" y1="541.57" y2="541.57"/><rect fill="none" height="6" style="stroke:#C82930;stroke-width:1.0;" width="6" x="133.73" y="552.2184"/><text fill="#000000" font-family="sans-serif" font-size="14" lengthAdjust="spacing" textLength="244.9795" x="145.73" y="558.5651">List&lt;Habitante&gt; habitantesPadron</text><line style="stroke:#181818;stroke-width:0.5;" x1="126.73" x2="431.2769" y1="565.8669" y2="565.8669"/><ellipse cx="136.73" cy="579.5153" fill="#84BE84" rx="3" ry="3" style="stroke:#038048;stroke-width:1.0;"/><text fill="#000000" font-family="sans-serif" font-size="14" lengthAdjust="spacing" textLength="239.0869" x="145.73" y="582.862">void annadir(Habitante habitante)</text><ellipse cx="136.73" cy="595.8122" fill="#84BE84" rx="3" ry="3" style="stroke:#038048;stroke-width:1.0;"/><text fill="#000000" font-family="sans-serif" font-size="14" lengthAdjust="spacing" textLength="280.5469" x="145.73" y="599.1589">List&lt;Habitante&gt; getHabitantesPadron()</text><ellipse cx="136.73" cy="612.1091" fill="#84BE84" rx="3" ry="3" style="stroke:#038048;stroke-width:1.0;"/><text fill="#000000" font-family="sans-serif" font-size="14" lengthAdjust="spacing" textLength="220.7256" x="145.73" y="615.4557">int calcularNumeroHabitantes()</text><ellipse cx="136.73" cy="628.4059" fill="#84BE84" rx="3" ry="3" style="stroke:#038048;stroke-width:1.0;"/><text fill="#000000" font-family="sans-serif" font-size="14" lengthAdjust="spacing" textLength="112.9912" x="145.73" y="631.7526">String toString()</text></g><!--class InterfazUsuario--><g id="elem_InterfazUsuario"><rect codeLine="26" fill="#F1F1F1" height="162.0781" id="InterfazUsuario" rx="2.5" ry="2.5" style="stroke:#181818;stroke-width:0.5;" width="288.9102" x="521.54" y="237.89"/><ellipse cx="608.2846" cy="253.89" fill="#ADD1B2" rx="11" ry="11" style="stroke:#181818;stroke-width:1.0;"/><path d="M611.2534,259.5306 Q610.6753,259.8275 610.0346,259.9681 Q609.394,260.1244 608.6909,260.1244 Q606.1909,260.1244 604.8628,258.4837 Q603.5503,256.8275 603.5503,253.7025 Q603.5503,250.5775 604.8628,248.9212 Q606.1909,247.265 608.6909,247.265 Q609.394,247.265 610.0346,247.4212 Q610.6909,247.5775 611.2534,247.8744 L611.2534,250.5931 Q610.6284,250.015 610.0346,249.7494 Q609.4409,249.4681 608.8159,249.4681 Q607.4721,249.4681 606.7846,250.5462 Q606.0971,251.6087 606.0971,253.7025 Q606.0971,255.7962 606.7846,256.8744 Q607.4721,257.9369 608.8159,257.9369 Q609.4409,257.9369 610.0346,257.6712 Q610.6284,257.39 611.2534,256.8119 L611.2534,259.5306 Z " fill="#000000"/><text fill="#000000" font-family="sans-serif" font-size="14" lengthAdjust="spacing" textLength="106.9209" x="628.7846" y="258.7367">InterfazUsuario</text><line style="stroke:#181818;stroke-width:0.5;" x1="522.54" x2="809.4502" y1="269.89" y2="269.89"/><rect fill="none" height="6" style="stroke:#C82930;stroke-width:1.0;" width="6" x="529.54" y="280.5384"/><text fill="#000000" font-family="sans-serif" font-size="14" lengthAdjust="spacing" textLength="151.9766" x="541.54" y="286.8851">OficinaPadron padron</text><rect fill="none" height="6" style="stroke:#C82930;stroke-width:1.0;" width="6" x="529.54" y="296.8353"/><text fill="#000000" font-family="sans-serif" font-size="14" lengthAdjust="spacing" textLength="76.7197" x="541.54" y="303.182">Scanner sc</text><line style="stroke:#181818;stroke-width:0.5;" x1="522.54" x2="809.4502" y1="310.4837" y2="310.4837"/><ellipse cx="532.54" cy="324.1322" fill="#84BE84" rx="3" ry="3" style="stroke:#038048;stroke-width:1.0;"/><text fill="#000000" font-family="sans-serif" font-size="14" lengthAdjust="spacing" textLength="262.9102" x="541.54" y="327.4789">boolean ejecutar(String[] instruccion)</text><ellipse cx="532.54" cy="340.4291" fill="#84BE84" rx="3" ry="3" style="stroke:#038048;stroke-width:1.0;"/><text fill="#000000" font-family="sans-serif" font-size="14" lengthAdjust="spacing" textLength="164.3906" x="541.54" y="343.7757">String[] leerInstrucion()</text><rect fill="#F24D5C" height="6" style="stroke:#C82930;stroke-width:1.0;" width="6" x="529.54" y="353.7259"/><text fill="#000000" font-family="sans-serif" font-size="14" lengthAdjust="spacing" textLength="120.9756" x="541.54" y="360.0726">void leerPadron()</text><rect fill="#F24D5C" height="6" style="stroke:#C82930;stroke-width:1.0;" width="6" x="529.54" y="370.0228"/><text fill="#000000" font-family="sans-serif" font-size="14" lengthAdjust="spacing" textLength="145.8857" x="541.54" y="376.3695">void escribirPadron()</text><ellipse cx="532.54" cy="389.3197" fill="#84BE84" rx="3" ry="3" style="stroke:#038048;stroke-width:1.0;"/><text fill="#000000" font-family="sans-serif" font-size="14" lengthAdjust="spacing" textLength="117.8447" x="541.54" y="392.6664">InterfazUsuario()</text></g><!--class Principal--><g id="elem_Principal"><rect codeLine="38" fill="#F1F1F1" height="64.2969" id="Principal" rx="2.5" ry="2.5" style="stroke:#181818;stroke-width:0.5;" width="236.54" x="547.73" y="41"/><ellipse cx="631.7984" cy="57" fill="#ADD1B2" rx="11" ry="11" style="stroke:#181818;stroke-width:1.0;"/><path d="M634.7671,62.6406 Q634.189,62.9375 633.5484,63.0781 Q632.9077,63.2344 632.2046,63.2344 Q629.7046,63.2344 628.3765,61.5938 Q627.064,59.9375 627.064,56.8125 Q627.064,53.6875 628.3765,52.0313 Q629.7046,50.375 632.2046,50.375 Q632.9077,50.375 633.5484,50.5313 Q634.2046,50.6875 634.7671,50.9844 L634.7671,53.7031 Q634.1421,53.125 633.5484,52.8594 Q632.9546,52.5781 632.3296,52.5781 Q630.9859,52.5781 630.2984,53.6563 Q629.6109,54.7188 629.6109,56.8125 Q629.6109,58.9063 630.2984,59.9844 Q630.9859,61.0469 632.3296,61.0469 Q632.9546,61.0469 633.5484,60.7813 Q634.1421,60.5 634.7671,59.9219 L634.7671,62.6406 Z " fill="#000000"/><text fill="#000000" font-family="sans-serif" font-size="14" lengthAdjust="spacing" textLength="59.9033" x="652.2984" y="61.8467">Principal</text><line style="stroke:#181818;stroke-width:0.5;" x1="548.73" x2="783.27" y1="73" y2="73"/><line style="stroke:#181818;stroke-width:0.5;" x1="548.73" x2="783.27" y1="81" y2="81"/><ellipse cx="558.73" cy="94.6484" fill="#84BE84" rx="3" ry="3" style="stroke:#038048;stroke-width:1.0;"/><text fill="#000000" font-family="sans-serif" font-size="14" lengthAdjust="spacing" textLength="210.54" x="567.73" y="97.9951">static void main(String[] args)</text></g><!--link Habitante to OficinaPadron--><g id="link_Habitante_OficinaPadron"><path codeLine="43" d="M259.61,432.91 C263.22,459.04 266.107,480.0167 269.317,503.1967 " fill="none" id="Habitante-to-OficinaPadron" style="stroke:#181818;stroke-width:1.0;"/><polygon fill="#181818" points="270.14,509.14,272.8676,499.6764,269.4541,504.1873,264.9433,500.7738,270.14,509.14" style="stroke:#181818;stroke-width:1.0;"/><text fill="#000000" font-family="sans-serif" font-size="13" lengthAdjust="spacing" textLength="55.0278" x="266" y="475.6369">contains</text></g><!--link InterfazUsuario to OficinaPadron--><g id="link_InterfazUsuario_OficinaPadron"><path codeLine="44" d="M543.02,400.45 C489.35,435.59 432.3097,472.9332 381.8497,505.9732 " fill="none" id="InterfazUsuario-to-OficinaPadron" style="stroke:#181818;stroke-width:1.0;"/><polygon fill="#181818" points="376.83,509.26,386.5507,507.6763,381.0131,506.521,382.1683,500.9834,376.83,509.26" style="stroke:#181818;stroke-width:1.0;"/><text fill="#000000" font-family="sans-serif" font-size="13" lengthAdjust="spacing" textLength="29.7832" x="438" y="475.6369">uses</text></g><!--link Principal to InterfazUsuario--><g id="link_Principal_InterfazUsuario"><path codeLine="45" d="M666,105.52 C666,138.7 666,186.38 666,231.47 " fill="none" id="Principal-to-InterfazUsuario" style="stroke:#181818;stroke-width:1.0;"/><polygon fill="#181818" points="666,237.47,670,228.47,666,232.47,662,228.47,666,237.47" style="stroke:#181818;stroke-width:1.0;"/><text fill="#000000" font-family="sans-serif" font-size="13" lengthAdjust="spacing" textLength="29.7832" x="667" y="150.3669">uses</text></g><!--SRC=[ZLJ1IiGm4BttAtAih5kmHv45Rox8kY2UnCCqpTRHD2cJr8FYlvkQRjEqjPXJo9kylFTcI0Fy7Ih1IbsZGis-4kOMbs0CkuC2BIWh-jDkRTcZ9LGLKxekICpFeH5IOgcl_eRo0Tg4DzA8zt96Dpl9BqOq7nfBPeGz_DwEkPRgRi-qwVITjUeyNTFGOzMWOXaCJw_Z-H9kjT_qs7SoQjV32JagE499MaKjkqTZRuQaT-prl3M-U6ePb88IAGq3CDmOQvhIEl5t4-R80ohBE4ZUIg13MmlIeVnVPftTff_NXeGHoWB7mQjFOU_Ow0IVJwO56WRQvn0drCJUtPXoPrmGCtoafT1Q2b1Cl0dUMg1-19vVd1rZgUMTWhbuXqiXQEzhC4fYwrFky5bAFIOC9ooG5bAS65mA1ng9V1xDqGdZs80SXR9Xne95xf-j0LKm25IP4Nl_HMHXAhRRtVdZoE9ihndNhZikecJSgMpQdJM6rWYJ12jPaD_TMgNrbty0]--></g></svg>